<svg width="16" height="17" viewBox="0 0 16 17" fill="none" xmlns="http://www.w3.org/2000/svg">
<path d="M4.8002 3.69961C4.8002 3.27526 4.96877 2.8683 5.26882 2.56824C5.56888 2.26818 5.97585 2.09961 6.4002 2.09961H11.2002C11.6245 2.09961 12.0315 2.26818 12.3316 2.56824C12.6316 2.8683 12.8002 3.27526 12.8002 3.69961V11.6996C12.8002 12.124 12.6316 12.5309 12.3316 12.831C12.0315 13.131 11.6245 13.2996 11.2002 13.2996H6.4002C5.97585 13.2996 5.56888 13.131 5.26882 12.831C4.96877 12.5309 4.8002 12.124 4.8002 11.6996V3.69961ZM3.2002 5.29961C3.2002 5.01876 3.27414 4.74286 3.41456 4.49963C3.55499 4.25641 3.75697 4.05444 4.0002 3.91401V12.0996C4.0002 12.63 4.21091 13.1388 4.58598 13.5138C4.96105 13.8889 5.46976 14.0996 6.0002 14.0996H10.9858C10.8454 14.3428 10.6434 14.5448 10.4002 14.6852C10.1569 14.8257 9.88105 14.8996 9.6002 14.8996H6.0002C5.25759 14.8996 4.5454 14.6046 4.0203 14.0795C3.49519 13.5544 3.2002 12.8422 3.2002 12.0996V5.29961Z" fill="#EEEEEE"/>
</svg>
