<svg width="20" height="20" viewBox="0 0 20 20" fill="none" xmlns="http://www.w3.org/2000/svg">
<g clip-path="url(#clip0_5_661)">
<path d="M10 0C10.4602 0 10.8333 0.373096 10.8333 0.833333V2.5C10.8333 2.96024 10.4602 3.33333 10 3.33333C9.53976 3.33333 9.16667 2.96024 9.16667 2.5V0.833333C9.16667 0.373096 9.53976 0 10 0Z" fill="#13131B"/>
<path fill-rule="evenodd" clip-rule="evenodd" d="M5 10C5 7.23858 7.23858 5 10 5C12.7614 5 15 7.23858 15 10C15 12.7614 12.7614 15 10 15C7.23858 15 5 12.7614 5 10ZM10 6.66667C8.15905 6.66667 6.66667 8.15905 6.66667 10C6.66667 11.8409 8.15905 13.3333 10 13.3333C11.8409 13.3333 13.3333 11.8409 13.3333 10C13.3333 8.15905 11.8409 6.66667 10 6.66667Z" fill="#13131B"/>
<path d="M10.8333 17.5C10.8333 17.0398 10.4602 16.6667 10 16.6667C9.53976 16.6667 9.16667 17.0398 9.16667 17.5V19.1667C9.16667 19.6269 9.53976 20 10 20C10.4602 20 10.8333 19.6269 10.8333 19.1667V17.5Z" fill="#13131B"/>
<path d="M2.92739 2.92739C3.25282 2.60195 3.78046 2.60195 4.1059 2.92739L5.28923 4.11072C5.61467 4.43616 5.61467 4.96379 5.28923 5.28923C4.96379 5.61467 4.43616 5.61467 4.11072 5.28923L2.92739 4.1059C2.60195 3.78046 2.60195 3.25282 2.92739 2.92739Z" fill="#13131B"/>
<path d="M15.8893 14.7107C15.5639 14.3853 15.0363 14.3853 14.7108 14.7107C14.3854 15.0362 14.3854 15.5638 14.7108 15.8892L15.8942 17.0726C16.2196 17.398 16.7472 17.398 17.0727 17.0726C17.3981 16.7471 17.3981 16.2195 17.0727 15.8941L15.8893 14.7107Z" fill="#13131B"/>
<path d="M0 10C0 9.53976 0.373096 9.16667 0.833333 9.16667H2.5C2.96024 9.16667 3.33333 9.53976 3.33333 10C3.33333 10.4602 2.96024 10.8333 2.5 10.8333H0.833333C0.373096 10.8333 0 10.4602 0 10Z" fill="#13131B"/>
<path d="M17.5 9.16667C17.0398 9.16667 16.6667 9.53976 16.6667 10C16.6667 10.4602 17.0398 10.8333 17.5 10.8333H19.1667C19.6269 10.8333 20 10.4602 20 10C20 9.53976 19.6269 9.16667 19.1667 9.16667H17.5Z" fill="#13131B"/>
<path d="M5.28923 14.7107C5.61467 15.0362 5.61467 15.5638 5.28923 15.8892L4.1059 17.0726C3.78046 17.398 3.25282 17.398 2.92739 17.0726C2.60195 16.7471 2.60195 16.2195 2.92739 15.8941L4.11072 14.7107C4.43616 14.3853 4.96379 14.3853 5.28923 14.7107Z" fill="#13131B"/>
<path d="M17.0727 4.1059C17.3981 3.78046 17.3981 3.25282 17.0727 2.92739C16.7472 2.60195 16.2196 2.60195 15.8942 2.92739L14.7108 4.11072C14.3854 4.43616 14.3854 4.96379 14.7108 5.28923C15.0363 5.61467 15.5639 5.61467 15.8893 5.28923L17.0727 4.1059Z" fill="#13131B"/>
</g>
<defs>
<clipPath id="clip0_5_661">
<rect width="20" height="20" fill="white"/>
</clipPath>
</defs>
</svg>
