<svg width="6" height="4" viewBox="0 0 6 4" fill="none" xmlns="http://www.w3.org/2000/svg">
<path d="M5.85896 0.965266L3.48391 3.76373C3.3546 3.91519 3.1809 4 3 4C2.8191 4 2.6454 3.91519 2.51609 3.76373L0.141037 0.965266C0.0742926 0.886902 0.0285641 0.786502 0.00968859 0.676882C-0.00918695 0.567262 -0.000353418 0.453395 0.0350618 0.349812C0.0704771 0.24623 0.130868 0.157632 0.208525 0.0953264C0.286183 0.0330207 0.377586 -0.000166491 0.471067 6.28072e-07H5.52893C5.62241 -0.000166491 5.71382 0.0330207 5.79147 0.0953264C5.86913 0.157632 5.92952 0.24623 5.96494 0.349812C6.00035 0.453395 6.00919 0.567262 5.99031 0.676882C5.97144 0.786502 5.92571 0.886902 5.85896 0.965266Z" fill="#8D8E92"/>
</svg>
