<svg width="20" height="20" viewBox="0 0 20 20" fill="none" xmlns="http://www.w3.org/2000/svg">
<rect width="19.9997" height="20" rx="9.99983" fill="#363646"/>
<path d="M11.9454 5.52413C12.2809 5.18858 12.7359 5.00005 13.2104 5C13.6849 4.99995 14.14 5.1884 14.4755 5.52388C14.8111 5.85937 14.9996 6.31441 14.9997 6.7889C14.9997 7.2634 14.8113 7.71847 14.4758 8.05403L14.0298 8.50001L11.4999 5.97012L11.9454 5.52413ZM10.9699 6.50009L5.97014 11.4994C5.76696 11.7026 5.62417 11.9583 5.55765 12.2378L5.01018 14.5382C4.99535 14.6006 4.99674 14.6656 5.01421 14.7273C5.03169 14.7889 5.06465 14.845 5.10998 14.8903C5.1553 14.9356 5.21147 14.9685 5.27312 14.9859C5.33477 15.0033 5.39985 15.0046 5.46216 14.9897L7.76256 14.4423C8.0422 14.3756 8.29786 14.2326 8.50103 14.0293L13.4998 9.03098L10.9694 6.50009H10.9699Z" fill="white"/>
</svg>
