<svg width="16" height="17" viewBox="0 0 16 17" fill="none" xmlns="http://www.w3.org/2000/svg">
<g opacity="0.4">
<path d="M6.38001 9.05664L4.34668 11.09" stroke="#EEEEEE" strokeWidth="1.5" strokeMiterlimit="10" strokeLinecap="round" strokeLinejoin="round"/>
<path d="M4.3667 9.07715L6.40003 11.1105" stroke="#EEEEEE" strokeWidth="1.5" strokeMiterlimit="10" strokeLinecap="round" strokeLinejoin="round"/>
<path d="M9.02002 10.083H9.02669" stroke="#EEEEEE" strokeWidth="2" strokeMiterlimit="10" strokeLinecap="round" strokeLinejoin="round"/>
<path d="M11.6467 10.083H11.6534" stroke="#EEEEEE" strokeWidth="2" strokeMiterlimit="10" strokeLinecap="round" strokeLinejoin="round"/>
<path d="M10.3333 11.403V11.3896" stroke="#EEEEEE" strokeWidth="2" strokeMiterlimit="10" strokeLinecap="round" strokeLinejoin="round"/>
<path d="M10.3333 8.77701V8.76367" stroke="#EEEEEE" strokeWidth="2" strokeMiterlimit="10" strokeLinecap="round" strokeLinejoin="round"/>
<path d="M5.99992 15.4167H9.99992C13.3333 15.4167 14.6666 14.0833 14.6666 10.75V9.41667C14.6666 6.08333 13.3333 4.75 9.99992 4.75H5.99992C2.66659 4.75 1.33325 6.08333 1.33325 9.41667V10.75C1.33325 14.0833 2.66659 15.4167 5.99992 15.4167Z" stroke="#EEEEEE" strokeWidth="1.5" strokeLinecap="round" strokeLinejoin="round"/>
<path d="M8.6734 2.08301L8.66674 2.75634C8.66007 3.12301 8.36674 3.41634 8.00007 3.41634H7.98007C7.6134 3.41634 7.32007 3.71634 7.32007 4.08301C7.32007 4.44967 7.62007 4.74967 7.98673 4.74967H8.6534" stroke="#EEEEEE" strokeWidth="1.5" strokeLinecap="round" strokeLinejoin="round"/>
</g>
</svg>
