<svg width="20" height="21" viewBox="0 0 20 21" fill="none" xmlns="http://www.w3.org/2000/svg">
<path d="M19.8692 10.4776C19.87 9.79615 19.812 9.11591 19.6957 8.44434H10.2V12.2955H15.6387C15.5274 12.9106 15.2919 13.497 14.9462 14.0192C14.6006 14.5415 14.1521 14.9888 13.6277 15.3343V17.8341H16.8736C18.7741 16.094 19.8692 13.5205 19.8692 10.4776Z" fill="#4285F4"/>
<path d="M10.1999 20.2498C12.9172 20.2498 15.2051 19.3637 16.8735 17.836L13.6276 15.3361C12.7242 15.9444 11.5606 16.2916 10.1999 16.2916C7.57353 16.2916 5.34432 14.5334 4.54718 12.1641H1.20337V14.7403C2.04144 16.3965 3.32654 17.7887 4.91518 18.7616C6.50382 19.7344 8.33349 20.2497 10.1999 20.2498Z" fill="#34A853"/>
<path d="M4.5471 12.1636C4.12568 10.9221 4.12568 9.57757 4.5471 8.33603V5.75977H1.20329C0.498276 7.15296 0.131104 8.69059 0.131104 10.2498C0.131104 11.809 0.498276 13.3467 1.20329 14.7399L4.5471 12.1636Z" fill="#FBBC04"/>
<path d="M10.1999 4.20879C11.6359 4.18549 13.0234 4.72429 14.0626 5.70872L16.9365 2.85469C15.1141 1.15488 12.6999 0.221659 10.1999 0.250656C8.33349 0.250741 6.50382 0.765984 4.91518 1.73886C3.32654 2.71174 2.04144 4.10397 1.20337 5.7601L4.54718 8.33636C5.34432 5.96704 7.57353 4.20879 10.1999 4.20879Z" fill="#EA4335"/>
</svg>
