<svg width="20" height="20" viewBox="0 0 20 20" fill="none" xmlns="http://www.w3.org/2000/svg">
<path fill-rule="evenodd" clip-rule="evenodd" d="M3.33337 0.833313C1.95266 0.833313 0.833374 1.9526 0.833374 3.33331C0.833374 4.71403 1.95266 5.83331 3.33337 5.83331C4.71409 5.83331 5.83337 4.71403 5.83337 3.33331C5.83337 1.9526 4.71409 0.833313 3.33337 0.833313ZM2.50004 3.33331C2.50004 2.87308 2.87314 2.49998 3.33337 2.49998C3.79361 2.49998 4.16671 2.87308 4.16671 3.33331C4.16671 3.79355 3.79361 4.16665 3.33337 4.16665C2.87314 4.16665 2.50004 3.79355 2.50004 3.33331Z" fill="#EEEEEE"/>
<path fill-rule="evenodd" clip-rule="evenodd" d="M13.3334 5.83331C11.7863 5.83331 10.3025 6.44789 9.20858 7.54186C8.11462 8.63582 7.50004 10.1195 7.50004 11.6666V17.5C7.50004 17.9602 7.87314 18.3333 8.33337 18.3333H11.6667C12.1269 18.3333 12.5 17.9602 12.5 17.5V11.6666C12.5 11.4456 12.5878 11.2337 12.7441 11.0774C12.9004 10.9211 13.1124 10.8333 13.3334 10.8333C13.5544 10.8333 13.7663 10.9211 13.9226 11.0774C14.0789 11.2337 14.1667 11.4456 14.1667 11.6666V17.5C14.1667 17.9602 14.5398 18.3333 15 18.3333H18.3334C18.7936 18.3333 19.1667 17.9602 19.1667 17.5V11.6666C19.1667 10.1196 18.5521 8.63582 17.4582 7.54186C16.3642 6.44789 14.8805 5.83331 13.3334 5.83331ZM13.3334 7.49998C12.2283 7.49998 11.1685 7.93897 10.3871 8.72037C9.60569 9.50177 9.16671 10.5616 9.16671 11.6666V16.6666H10.8334V11.6666C10.8334 11.0036 11.0968 10.3677 11.5656 9.89888C12.0344 9.43004 12.6703 9.16665 13.3334 9.16665C13.9964 9.16665 14.6323 9.43004 15.1011 9.89888C15.57 10.3677 15.8334 11.0036 15.8334 11.6666V16.6666H17.5V11.6666C17.5 10.5616 17.0611 9.50177 16.2797 8.72037C15.4983 7.93897 14.4384 7.49998 13.3334 7.49998Z" fill="#EEEEEE"/>
<path fill-rule="evenodd" clip-rule="evenodd" d="M0.833374 7.49998C0.833374 7.03974 1.20647 6.66665 1.66671 6.66665H5.00004C5.46028 6.66665 5.83337 7.03974 5.83337 7.49998V17.5C5.83337 17.9602 5.46028 18.3333 5.00004 18.3333H1.66671C1.20647 18.3333 0.833374 17.9602 0.833374 17.5V7.49998ZM2.50004 8.33331V16.6666H4.16671V8.33331H2.50004Z" fill="#EEEEEE"/>
</svg>
