<svg width="20" height="20" viewBox="0 0 20 20" fill="none" xmlns="http://www.w3.org/2000/svg">
<path fill-rule="evenodd" clip-rule="evenodd" d="M10.0676 2.09083C10.2289 2.37698 10.207 2.73117 10.0118 2.99531C9.29996 3.95836 8.95741 5.14492 9.04647 6.33918C9.13553 7.53344 9.65028 8.65607 10.4971 9.50288C11.3439 10.3497 12.4665 10.8644 13.6608 10.9535C14.8551 11.0426 16.0416 10.7 17.0047 9.98817C17.2688 9.79293 17.623 9.77106 17.9091 9.93233C18.1953 10.0936 18.36 10.4079 18.3298 10.735C18.1841 12.3111 17.5926 13.8131 16.6245 15.0653C15.6563 16.3176 14.3515 17.2681 12.8629 17.8059C11.3742 18.3436 9.76312 18.4462 8.21822 18.1017C6.67333 17.7573 5.2585 16.9799 4.13927 15.8607C3.02003 14.7415 2.2427 13.3266 1.89823 11.7817C1.55376 10.2369 1.65639 8.62581 2.19411 7.13712C2.73184 5.64842 3.68242 4.34366 4.93462 3.3755C6.18683 2.40734 7.68887 1.81583 9.26498 1.67018C9.59206 1.63995 9.90637 1.80467 10.0676 2.09083ZM7.76366 3.69919C7.11564 3.93365 6.50466 4.26833 5.95406 4.69403C4.9523 5.46856 4.19183 6.51237 3.76165 7.70332C3.33147 8.89428 3.24937 10.1831 3.52495 11.419C3.80053 12.6549 4.42239 13.7868 5.31778 14.6822C6.21316 15.5776 7.34503 16.1994 8.58094 16.475C9.81686 16.7506 11.1057 16.6685 12.2966 16.2383C13.4876 15.8081 14.5314 15.0477 15.3059 14.0459C15.7316 13.4953 16.0663 12.8843 16.3008 12.2363C15.4232 12.5538 14.4818 12.686 13.5368 12.6156C11.9445 12.4968 10.4477 11.8105 9.31858 10.6814C8.18949 9.55231 7.50316 8.05547 7.38442 6.46312C7.31395 5.51815 7.44615 4.57679 7.76366 3.69919Z" fill="white"/>
</svg>
