<svg width="20" height="21" viewBox="0 0 20 21" fill="none" xmlns="http://www.w3.org/2000/svg">
<g clip-path="url(#clip0_361_7595)">
<path d="M17.3252 10.5C17.3215 10.0731 17.2852 9.65812 17.219 9.25313L17.2252 9.3L19.7752 7.425L17.5502 3.575L14.6584 4.84188C14.0627 4.35313 13.3734 3.94812 12.6265 3.65937L12.5752 3.64188L12.2252 0.5H7.77523L7.42523 3.64188C6.62711 3.94812 5.93773 4.35313 5.32836 4.8525L5.34148 4.84188L2.44961 3.575L0.224609 7.425L2.77461 9.3C2.71461 9.65812 2.67836 10.0731 2.67461 10.4963V10.5C2.67836 10.9269 2.71461 11.3419 2.78086 11.7469L2.77461 11.7L0.224609 13.575L2.44961 17.425L5.34148 16.1581C5.93711 16.6469 6.62648 17.0519 7.37336 17.3406L7.42461 17.3581L7.77461 20.5H12.2246L12.5746 17.3581C13.3727 17.0519 14.0621 16.6469 14.6715 16.1475L14.6584 16.1581L17.5502 17.425L19.7752 13.575L17.2252 11.7C17.2852 11.3419 17.3215 10.9269 17.3252 10.5037V10.5ZM10.0002 13.2081C8.50461 13.2081 7.29211 11.9956 7.29211 10.5C7.29211 9.00438 8.50461 7.79187 10.0002 7.79187C11.4959 7.79187 12.7084 9.00438 12.7084 10.5C12.7034 11.9937 11.494 13.2037 10.0002 13.2081H9.99961H10.0002Z" fill="white"/>
</g>
<defs>
<clipPath id="clip0_361_7595">
<rect width="20" height="20" fill="white" transform="translate(0 0.5)"/>
</clipPath>
</defs>
</svg>
