<svg width="20" height="20" viewBox="0 0 20 20" fill="none" xmlns="http://www.w3.org/2000/svg">
<path d="M9.99996 5.83331C9.99996 5.37308 9.62686 4.99998 9.16663 4.99998C8.70639 4.99998 8.33329 5.37308 8.33329 5.83331V9.16665C8.33329 9.62688 8.70639 9.99998 9.16663 9.99998C9.62686 9.99998 9.99996 9.62688 9.99996 9.16665V5.83331Z" fill="#EEEEEE"/>
<path d="M14.1666 5.83331C14.1666 5.37308 13.7935 4.99998 13.3333 4.99998C12.8731 4.99998 12.5 5.37308 12.5 5.83331V9.16665C12.5 9.62688 12.8731 9.99998 13.3333 9.99998C13.7935 9.99998 14.1666 9.62688 14.1666 9.16665V5.83331Z" fill="#EEEEEE"/>
<path fill-rule="evenodd" clip-rule="evenodd" d="M2.49996 0.833313C2.03972 0.833313 1.66663 1.20641 1.66663 1.66665V15C1.66663 15.4602 2.03972 15.8333 2.49996 15.8333H5.83329V18.3333C5.83329 18.6704 6.03633 18.9742 6.34772 19.1032C6.65912 19.2322 7.01755 19.1609 7.25588 18.9226L10.3451 15.8333H14.1666C14.3876 15.8333 14.5996 15.7455 14.7559 15.5892L18.0892 12.2559C18.2455 12.0996 18.3333 11.8877 18.3333 11.6666V1.66665C18.3333 1.20641 17.9602 0.833313 17.5 0.833313H2.49996ZM3.33329 14.1666V2.49998H16.6666V11.3215L13.8214 14.1666H9.99996C9.77895 14.1666 9.56698 14.2544 9.4107 14.4107L7.49996 16.3215V15C7.49996 14.5397 7.12686 14.1666 6.66663 14.1666H3.33329Z" fill="#EEEEEE"/>
</svg>
