<svg width="20" height="20" viewBox="0 0 20 20" fill="none" xmlns="http://www.w3.org/2000/svg">
<g clip-path="url(#clip0_5_674)">
<path fill-rule="evenodd" clip-rule="evenodd" d="M14.8414 1.79484C13.9339 1.56776 12.9785 1.62488 12.1045 1.95847C11.2305 2.29206 10.4801 2.88602 9.95464 3.66003C9.43498 4.42553 9.16024 5.33061 9.1664 6.25532C8.11863 6.17658 7.09368 5.89324 6.15047 5.41849C4.96467 4.82164 3.94488 3.94078 3.18193 2.85439L2.49996 3.33331L1.75461 2.96063C1.74798 2.97388 1.74174 2.98725 1.73587 3.00074L1.7334 3.00636L1.72376 3.0288C1.71588 3.04735 1.70514 3.07302 1.692 3.10546C1.66572 3.17032 1.62977 3.26238 1.5877 3.37875C1.50365 3.61123 1.39461 3.94229 1.28953 4.34862C1.08036 5.15739 0.881387 6.28521 0.938323 7.53782C0.995425 8.79406 1.31115 10.193 2.14751 11.5136C2.77448 12.5035 3.67628 13.4212 4.92891 14.1941C3.66361 14.777 2.2721 15.0566 0.866418 15.0006C0.480817 14.9853 0.135128 15.2367 0.0309212 15.6083C-0.0732859 15.9799 0.0912523 16.3744 0.428595 16.5618C4.40902 18.7731 8.87573 18.7937 12.3707 16.9335C15.8859 15.0625 18.3333 11.3333 18.3333 6.24998L18.3333 6.24722C18.3328 6.11201 18.3264 5.97695 18.314 5.84245C19.1187 4.94962 19.6909 3.86926 19.9763 2.69716L19.1666 2.49998L18.6863 1.81901C18.0959 2.23546 17.4539 2.57213 16.7771 2.8209C16.2268 2.32878 15.5631 1.97541 14.8414 1.79484ZM2.60327 7.46214C2.56186 6.55101 2.68409 5.70412 2.83717 5.03632C3.581 5.79371 4.4465 6.42671 5.40114 6.90721C6.83245 7.62764 8.41971 7.9829 10.0216 7.94136C10.4732 7.92965 10.8333 7.56013 10.8333 7.10831V6.27498L10.8332 6.26381C10.8253 5.66978 10.9999 5.08764 11.3336 4.59612C11.6673 4.1046 12.1438 3.72741 12.6989 3.51557C13.2539 3.30373 13.8606 3.26746 14.4369 3.41166C15.0132 3.55586 15.5313 3.87358 15.9212 4.32184C16.1363 4.56917 16.4764 4.66743 16.7902 4.57292C16.9833 4.5148 17.1743 4.45086 17.363 4.38123C17.2057 4.58678 17.0338 4.7819 16.8482 4.96497C16.6501 5.16029 16.5626 5.44155 16.6148 5.71477C16.6486 5.89165 16.6659 6.07129 16.6666 6.25137C16.6662 10.7507 14.5304 13.8959 11.5876 15.4623C9.42247 16.6147 6.77519 16.9361 4.13338 16.2631C5.19513 15.9573 6.20887 15.4846 7.13466 14.8561C7.38501 14.6862 7.52357 14.3939 7.49666 14.0925C7.46975 13.7911 7.28158 13.528 7.00508 13.4051C5.26333 12.631 4.2002 11.6397 3.55554 10.6218C2.90753 9.59863 2.65034 8.49756 2.60327 7.46214Z" fill="#EEEEEE"/>
</g>
<defs>
<clipPath id="clip0_5_674">
<rect width="20" height="20" fill="white"/>
</clipPath>
</defs>
</svg>
