<svg width="20" height="20" viewBox="0 0 20 20" fill="none" xmlns="http://www.w3.org/2000/svg">
<g clip-path="url(#clip0_5_670)">
<path fill-rule="evenodd" clip-rule="evenodd" d="M8.11701 6.26549C8.89493 5.86185 9.78031 5.71377 10.6472 5.84232C11.5315 5.97345 12.3502 6.38551 12.9823 7.01764C13.6145 7.64977 14.0265 8.46845 14.1577 9.35274C14.2862 10.2197 14.1381 11.105 13.7345 11.883C13.3308 12.6609 12.6922 13.2917 11.9093 13.6857C11.1265 14.0798 10.2394 14.2169 9.3741 14.0777C8.50882 13.9384 7.70949 13.5299 7.08978 12.9102C6.47007 12.2905 6.06154 11.4911 5.92231 10.6259C5.78307 9.76061 5.92022 8.87346 6.31424 8.09063C6.70826 7.3078 7.3391 6.66914 8.11701 6.26549ZM10.4028 7.49096C9.88261 7.41383 9.35138 7.50268 8.88463 7.74486C8.41788 7.98705 8.03938 8.37025 7.80297 8.83995C7.56655 9.30965 7.48427 9.84193 7.5678 10.3611C7.65135 10.8803 7.89646 11.3599 8.26829 11.7317C8.64011 12.1035 9.11972 12.3486 9.63888 12.4322C10.158 12.5157 10.6903 12.4334 11.16 12.197C11.6297 11.9606 12.0129 11.5821 12.2551 11.1153C12.4973 10.6486 12.5861 10.1174 12.509 9.59721C12.4303 9.06664 12.1831 8.57543 11.8038 8.19615C11.4245 7.81688 10.9333 7.56964 10.4028 7.49096Z" fill="#EEEEEE"/>
<path d="M14.5834 4.58331C14.1231 4.58331 13.75 4.95641 13.75 5.41665C13.75 5.87688 14.1231 6.24998 14.5834 6.24998H14.5917C15.0519 6.24998 15.425 5.87688 15.425 5.41665C15.425 4.95641 15.0519 4.58331 14.5917 4.58331H14.5834Z" fill="#EEEEEE"/>
<path fill-rule="evenodd" clip-rule="evenodd" d="M0.833374 5.83331C0.833374 3.07189 3.07195 0.833313 5.83337 0.833313H14.1667C16.9281 0.833313 19.1667 3.07189 19.1667 5.83331V14.1666C19.1667 16.9281 16.9281 19.1666 14.1667 19.1666H5.83337C3.07195 19.1666 0.833374 16.9281 0.833374 14.1666V5.83331ZM5.83337 2.49998C3.99242 2.49998 2.50004 3.99236 2.50004 5.83331V14.1666C2.50004 16.0076 3.99242 17.5 5.83337 17.5H14.1667C16.0077 17.5 17.5 16.0076 17.5 14.1666V5.83331C17.5 3.99236 16.0077 2.49998 14.1667 2.49998H5.83337Z" fill="#EEEEEE"/>
</g>
<defs>
<clipPath id="clip0_5_670">
<rect width="20" height="20" fill="white"/>
</clipPath>
</defs>
</svg>
