<svg width="16" height="17" viewBox="0 0 16 17" fill="none" xmlns="http://www.w3.org/2000/svg">
<g opacity="0.5">
<path d="M10 5.41672C10.3536 5.41672 10.6928 5.55719 10.9428 5.80724C11.1929 6.05729 11.3333 6.39643 11.3333 6.75005M14 6.75005C14.0002 7.37483 13.854 7.99097 13.5732 8.54908C13.2924 9.1072 12.8847 9.59177 12.3829 9.96397C11.8811 10.3362 11.2991 10.5856 10.6835 10.6924C10.0679 10.7991 9.43584 10.7602 8.838 10.5787L7.33333 12.0834H6V13.4167H4.66667V14.7501H2.66667C2.48986 14.7501 2.32029 14.6798 2.19526 14.5548C2.07024 14.4298 2 14.2602 2 14.0834V12.3594C2.00004 12.1826 2.0703 12.013 2.19533 11.8881L6.17133 7.91205C6.00497 7.36206 5.95904 6.78268 6.0367 6.21335C6.11435 5.64402 6.31375 5.0981 6.62133 4.61275C6.92891 4.1274 7.33744 3.71401 7.81913 3.40073C8.30082 3.08745 8.84435 2.88162 9.41272 2.79725C9.9811 2.71289 10.561 2.75197 11.1129 2.91184C11.6648 3.07171 12.1758 3.34861 12.6111 3.72369C13.0464 4.09878 13.3958 4.56324 13.6354 5.08548C13.8751 5.60771 13.9994 6.17545 14 6.75005Z" stroke="#EEEEEE" stroke-width="1.66667" stroke-linecap="round" stroke-linejoin="round"/>
</g>
</svg>
