<svg width="21" height="20" viewBox="0 0 21 20" fill="none" xmlns="http://www.w3.org/2000/svg">
<path fill-rule="evenodd" clip-rule="evenodd" d="M18.4454 2.25592C18.7709 1.93049 18.7709 1.40285 18.4454 1.07741C18.12 0.751974 17.5924 0.751974 17.2669 1.07741L9.79275 8.55158C8.87021 7.89848 7.75993 7.54617 6.61594 7.55611C5.19571 7.56845 3.83714 8.13811 2.83284 9.14241C1.82855 10.1467 1.25888 11.5053 1.24654 12.9255C1.2342 14.3457 1.78017 15.714 2.76686 16.7356L2.77308 16.742C3.27482 17.2505 3.87221 17.6547 4.53083 17.9314C5.18945 18.2081 5.89629 18.3518 6.61067 18.3542C7.32505 18.3566 8.03284 18.2176 8.6933 17.9454C9.35376 17.6731 9.95383 17.2729 10.459 16.7677C10.9641 16.2626 11.3644 15.6625 11.6366 15.002C11.9089 14.3416 12.0478 13.6338 12.0455 12.9194C12.0431 12.205 11.8994 11.4982 11.6227 10.8396C11.455 10.4404 11.2404 10.0637 10.9842 9.71715L13.2728 7.42851L15.1836 9.33926C15.509 9.66469 16.0367 9.66469 16.3621 9.33926L19.2788 6.42259C19.6042 6.09715 19.6042 5.56951 19.2788 5.24408L17.368 3.33333L18.4454 2.25592ZM9.26132 10.2686C9.27137 10.2786 9.28162 10.2882 9.29204 10.2975C9.63029 10.6387 9.89991 11.0419 10.0861 11.4851C10.2777 11.9411 10.3771 12.4304 10.3788 12.925C10.3805 13.4196 10.2843 13.9096 10.0958 14.3668C9.90726 14.824 9.63018 15.2395 9.28047 15.5892C8.93075 15.9389 8.51531 16.216 8.05807 16.4045C7.60083 16.593 7.11082 16.6892 6.61625 16.6875C6.12168 16.6859 5.63233 16.5864 5.17636 16.3948C4.72175 16.2039 4.30929 15.9251 3.96257 15.5745C3.28144 14.8676 2.90462 13.9217 2.91315 12.94C2.92169 11.9567 3.31607 11.0162 4.01135 10.3209C4.70663 9.62564 5.64718 9.23126 6.63042 9.22271C7.61049 9.2142 8.5548 9.58971 9.26132 10.2686ZM15.7728 7.57149L14.4513 6.25L16.1895 4.51184L17.511 5.83333L15.7728 7.57149Z" fill="#00CCCB"/>
</svg>
