<svg width="21" height="20" viewBox="0 0 21 20" fill="none" xmlns="http://www.w3.org/2000/svg">
<path fill-rule="evenodd" clip-rule="evenodd" d="M4.31732 1.66667C3.65428 1.66667 3.0184 1.93006 2.54955 2.3989C2.08071 2.86774 1.81732 3.50363 1.81732 4.16667V17.5C1.81732 17.8371 2.02036 18.1409 2.33175 18.2699C2.64315 18.3989 3.00158 18.3276 3.23991 18.0893L6.32917 15H15.984C16.647 15 17.2829 14.7366 17.7518 14.2678C18.2206 13.7989 18.484 13.163 18.484 12.5V4.16667C18.484 3.50363 18.2206 2.86774 17.7518 2.3989C17.2829 1.93006 16.647 1.66667 15.984 1.66667H4.31732ZM3.72807 3.57741C3.88435 3.42113 4.09631 3.33333 4.31732 3.33333H15.984C16.205 3.33333 16.417 3.42113 16.5732 3.57741C16.7295 3.73369 16.8173 3.94565 16.8173 4.16667V12.5C16.8173 12.721 16.7295 12.933 16.5732 13.0893C16.417 13.2455 16.205 13.3333 15.984 13.3333H5.98399C5.76297 13.3333 5.55101 13.4211 5.39473 13.5774L3.48399 15.4882V4.16667C3.48399 3.94565 3.57179 3.73369 3.72807 3.57741Z" fill="#00ADB5"/>
</svg>
