<svg width="11" height="13" viewBox="0 0 11 13" fill="none" xmlns="http://www.w3.org/2000/svg">
<path d="M10.6571 10.326V8.166C10.6571 7.176 10.0631 6.348 9.05507 6.348H8.02907C7.72307 6.348 7.20107 6.474 7.00307 6.906L6.44507 8.058C6.30107 8.346 6.22907 8.652 6.22907 8.922V10.326C6.22907 11.316 6.82307 12.144 7.83107 12.144H9.05507C10.0631 12.144 10.6571 11.316 10.6571 10.326ZM9.03707 0.479999H7.54307L1.99907 12H3.49307L9.03707 0.479999ZM4.77107 3.558V2.154C4.77107 1.164 4.17707 0.336 3.16907 0.336H1.96307C0.95507 0.336 0.34307 1.164 0.34307 2.154V4.314C0.34307 5.304 0.95507 6.132 1.96307 6.132H2.97107C3.27707 6.132 3.79907 5.988 4.01507 5.556L4.57307 4.422C4.71707 4.134 4.77107 3.828 4.77107 3.558ZM9.21707 10.272C9.21707 10.614 8.96507 10.938 8.67707 10.938H8.19107C7.90307 10.938 7.66907 10.614 7.66907 10.272V8.832C7.66907 8.742 7.70507 8.58 7.75907 8.472L8.10107 7.716C8.13707 7.626 8.28107 7.554 8.37107 7.554H8.67707C8.96507 7.554 9.21707 7.878 9.21707 8.22V10.272ZM3.33107 3.648C3.33107 3.738 3.31307 3.9 3.25907 4.008L2.89907 4.764C2.84507 4.854 2.73707 4.926 2.64707 4.926H2.32307C2.03507 4.926 1.78307 4.602 1.78307 4.26V2.208C1.78307 1.866 2.03507 1.542 2.32307 1.542H2.80907C3.09707 1.542 3.33107 1.866 3.33107 2.208V3.648Z" fill="#7A8D9E"/>
</svg>
