<svg width="12" height="10" viewBox="0 0 12 10" fill="none" xmlns="http://www.w3.org/2000/svg">
<path d="M11.04 4.31284C11.04 6.08136 9.53304 7.51958 7.68 7.51958H3.31896L4.27896 6.60337L3.6 5.95538L1.48104 7.97769L3.6 10L4.27896 9.35201L3.31896 8.4358H7.68C10.062 8.4358 12 6.58619 12 4.31284H11.04ZM4.32 2.48042H8.68104L7.72104 3.39663L8.4 4.04462L10.519 2.02231L8.4 0L7.72104 0.647991L8.68104 1.5642H4.32C1.938 1.5642 0 3.41381 0 5.68716H0.96C0.96 3.91887 2.4672 2.48042 4.32 2.48042Z" fill="#7A8D9E"/>
</svg>
