<svg width="25" height="24" viewBox="0 0 25 24" fill="none" xmlns="http://www.w3.org/2000/svg">
<path fill-rule="evenodd" clip-rule="evenodd" d="M4.1507 11C4.1507 7.13401 7.2847 4 11.1507 4C15.0167 4 18.1507 7.13401 18.1507 11C18.1507 12.8858 17.405 14.5974 16.1924 15.8561C16.158 15.8825 16.125 15.9114 16.0935 15.9429C16.062 15.9744 16.0331 16.0074 16.0067 16.0418C14.748 17.2543 13.0364 18 11.1507 18C7.2847 18 4.1507 14.866 4.1507 11ZM16.7683 18.0319C15.2287 19.2635 13.2757 20 11.1507 20C6.18013 20 2.1507 15.9706 2.1507 11C2.1507 6.02944 6.18013 2 11.1507 2C16.1213 2 20.1507 6.02944 20.1507 11C20.1507 13.125 19.4142 15.0781 18.1826 16.6177L21.8577 20.2929C22.2482 20.6834 22.2482 21.3166 21.8577 21.7071C21.4672 22.0976 20.834 22.0976 20.4435 21.7071L16.7683 18.0319Z" fill="#00ADB5"/>
</svg>
