<svg width="13" height="11" viewBox="0 0 13 11" fill="none" xmlns="http://www.w3.org/2000/svg">
<path d="M13 4.19348V4.18386C13.0006 4.14095 12.9886 4.09861 12.9653 4.06189L10.9264 0.802674C10.9163 0.786531 10.904 0.771602 10.8901 0.758225C10.8776 0.74772 10.8644 0.738211 10.8504 0.729697H10.8355C10.8228 0.723616 10.8096 0.718861 10.7958 0.715433H10.7794C10.7604 0.710347 10.7409 0.707693 10.7215 0.707583H7.45905C7.38374 0.435132 7.18639 0.208792 6.92019 0.0894799C6.65388 -0.0298267 6.34616 -0.0298267 6.07983 0.0894799C5.81363 0.208787 5.61629 0.435132 5.54097 0.707583H2.28684C2.26723 0.707693 2.24774 0.710347 2.22894 0.715433H2.21245C2.19872 0.718861 2.18534 0.723615 2.17277 0.729697H2.15789C2.14382 0.738211 2.13055 0.747721 2.11821 0.758225C2.10425 0.771604 2.09203 0.786531 2.08176 0.802674L0.0347372 4.06189C0.0114388 4.09861 -0.000555976 4.14095 1.97942e-05 4.18386V4.19978C1.97942e-05 4.98296 0.435893 5.70676 1.1435 6.0983C1.85099 6.48995 2.7227 6.48995 3.43019 6.0983C4.1378 5.70676 4.57367 4.98296 4.57367 4.19978V4.18386C4.57344 4.14095 4.56145 4.09894 4.53895 4.06189L2.72005 1.15934H5.53096V1.15923C5.57537 1.32332 5.66475 1.47303 5.78978 1.59277C5.91469 1.71263 6.07086 1.79832 6.24201 1.84089V8.88697H3.30375L2.47701 11H10.5227L9.69598 8.88697H6.7478V1.84089C6.91897 1.79832 7.07514 1.71263 7.20003 1.59277C7.32506 1.47302 7.41445 1.32331 7.45885 1.15923H10.2698L8.45086 4.06178V4.06189C8.42837 4.09894 8.41637 4.14095 8.41614 4.18386V4.19978C8.41614 4.98296 8.85202 5.70676 9.55962 6.0983C10.2671 6.48995 11.1388 6.48995 11.8463 6.0983C12.5539 5.70676 12.9898 4.98296 12.9898 4.19978L13 4.19348ZM0.535885 4.18397L2.28696 1.3845L4.0363 4.18388L0.535885 4.18397ZM6.748 1.33066C6.62147 1.39811 6.47061 1.40917 6.33475 1.36107C6.19899 1.31286 6.09196 1.21025 6.04167 1.0801C5.9915 0.949849 6.00303 0.805222 6.07339 0.683925C6.16277 0.539517 6.32494 0.450948 6.50002 0.450948C6.6751 0.450948 6.83727 0.539517 6.92665 0.683925C6.9917 0.792507 7.00946 0.921324 6.97602 1.0424C6.94257 1.16359 6.86068 1.26708 6.74799 1.33067L6.748 1.33066ZM8.96365 4.18397L10.7131 1.3845L12.4642 4.18388L8.96365 4.18397Z" fill="#8D8E92"/>
</svg>
