<svg width="12" height="15" viewBox="0 0 12 15" fill="none" xmlns="http://www.w3.org/2000/svg">
<path d="M10.0788 4.48614H1.34366L0.434494 15H3.18153L3.18167 11.3438C3.18167 9.94061 4.32791 8.79451 5.73101 8.79451C7.13424 8.79451 8.28035 9.94076 8.28035 11.3438V14.9802H11.0274L10.0788 4.48614Z" fill="#E72649"/>
<path d="M11.0275 3.95257L11.4228 0H9.9801V0.494071C9.9801 0.968415 9.60457 1.3438 9.13037 1.3438C8.65602 1.3438 8.28064 0.968274 8.28064 0.494071V0H6.5613V0.494071C6.5613 0.968415 6.18577 1.3438 5.71157 1.3438C5.23723 1.3438 4.86184 0.968274 4.86184 0.494071V0H3.14212V0.494071C3.14212 0.968415 2.76659 1.3438 2.29239 1.3438C1.81804 1.3438 1.44265 0.968274 1.44265 0.494071V0H0L0.395222 3.95257H11.0275Z" fill="#E72649"/>
</svg>
