<svg width="21" height="20" viewBox="0 0 21 20" fill="none" xmlns="http://www.w3.org/2000/svg">
<path fill-rule="evenodd" clip-rule="evenodd" d="M10.6506 1.66667C8.34945 1.66667 6.48397 3.53215 6.48397 5.83333C6.48397 8.13452 8.34945 10 10.6506 10C12.9518 10 14.8173 8.13452 14.8173 5.83333C14.8173 3.53215 12.9518 1.66667 10.6506 1.66667ZM8.15063 5.83333C8.15063 4.45262 9.26992 3.33333 10.6506 3.33333C12.0313 3.33333 13.1506 4.45262 13.1506 5.83333C13.1506 7.21405 12.0313 8.33333 10.6506 8.33333C9.26992 8.33333 8.15063 7.21405 8.15063 5.83333Z" fill="#000000"/>
<path d="M7.3173 11.6667C6.21223 11.6667 5.15242 12.1057 4.37102 12.8871C3.58962 13.6685 3.15063 14.7283 3.15063 15.8333V17.5C3.15063 17.9602 3.52373 18.3333 3.98397 18.3333C4.44421 18.3333 4.8173 17.9602 4.8173 17.5V15.8333C4.8173 15.1703 5.08069 14.5344 5.54953 14.0656C6.01838 13.5967 6.65426 13.3333 7.3173 13.3333H13.984C14.647 13.3333 15.2829 13.5967 15.7517 14.0656C16.2206 14.5344 16.484 15.1703 16.484 15.8333V17.5C16.484 17.9602 16.8571 18.3333 17.3173 18.3333C17.7775 18.3333 18.1506 17.9602 18.1506 17.5V15.8333C18.1506 14.7283 17.7116 13.6685 16.9302 12.8871C16.1488 12.1057 15.089 11.6667 13.984 11.6667H7.3173Z" fill="#000000"/>
</svg>
