<svg width="12" height="11" viewBox="0 0 12 11" fill="none" xmlns="http://www.w3.org/2000/svg">
<path d="M5.52563 3.92739L8.94066 3.05176e-05L11.0514 3.92739H5.52563Z" fill="white"/>
<path d="M5.52562 3.92739L2.1106 3.05176e-05H8.94096L5.52593 3.92739H5.52562Z" fill="white"/>
<path d="M5.52563 3.92737H11.0514L5.52563 10.5107V3.92737Z" fill="white"/>
<path d="M5.52572 3.92736H0L2.11069 0L5.52572 3.92736Z" fill="white"/>
<path d="M5.52572 10.5107L0 3.92737H5.52572V10.5107Z" fill="white"/>
<mask id="mask0_164_4944" style="mask-type:alpha" maskUnits="userSpaceOnUse" x="0" y="0" width="12" height="11">
<path d="M5.52563 3.92739L8.94066 3.05176e-05L11.0514 3.92739H5.52563Z" fill="#ED1C24"/>
<path d="M5.52562 3.92739L2.1106 3.05176e-05H8.94096L5.52593 3.92739H5.52562Z" fill="#FF7676"/>
<path d="M5.52563 3.92737H11.0514L5.52563 10.5107V3.92737Z" fill="#AD1515"/>
<path d="M5.52572 3.92736H0L2.11069 0L5.52572 3.92736Z" fill="#EA292C"/>
<path d="M5.52572 10.5107L0 3.92737H5.52572V10.5107Z" fill="#D5241C"/>
</mask>
<g mask="url(#mask0_164_4944)">
<g style="mix-blend-mode:soft-light">
<g style="mix-blend-mode:soft-light">
<path d="M10.9733 2.6972L0.733073 6.16719L0.0109863 4.03604L10.2512 0.566055L10.9733 2.6972Z" fill="white"/>
</g>
<g style="mix-blend-mode:soft-light" opacity="0.5">
<path d="M12.7956 4.25038L0.0969367 8.55359L-0.311279 7.34848L12.3874 3.04527L12.7956 4.25038Z" fill="white"/>
</g>
</g>
<path opacity="0.6" d="M8.2172 2.35682C7.56046 2.35682 7.02828 2.88899 7.02828 3.54574C7.02828 2.88899 6.4961 2.35682 5.83936 2.35682C6.4961 2.35682 7.02828 1.82464 7.02828 1.16789C7.02828 1.82464 7.56046 2.35682 8.2172 2.35682Z" fill="white"/>
</g>
</svg>
